<?xml version="1.0" encoding="UTF-8" standalone="no"?>
<svg
   viewBox="0 0 1534.4399 648.84003"
   version="1.1"
   id="svg26"
   width="1534.4399"
   height="648.84003"
   xmlns:xlink="http://www.w3.org/1999/xlink"
   xmlns="http://www.w3.org/2000/svg"
   xmlns:svg="http://www.w3.org/2000/svg">
  <defs
     id="defs9">
    <style
       id="style1">.y{fill:url(#p);}.z{mask:url(#m);}.aa{clip-path:url(#j);}.ab{fill:url(#i);}.ac{clip-path:url(#r);}.ad{isolation:isolate;}.ae{clip-path:url(#d);}.af{clip-path:url(#x);}.ag{filter:url(#h);}.ah{clip-path:url(#e);}.ai{clip-path:url(#l);}.aj{filter:url(#o);}.ak{filter:url(#v);}.al{mask:url(#f);}.am{clip-path:url(#q);}.an{clip-path:url(#k);}.ao{mask:url(#t);}.ap{fill:none;}.aq{fill:url(#w);}.ar{clip-path:url(#s);}.as{mix-blend-mode:multiply;}.at{fill:#1d1d1b;}.au{fill:#76b82a;}</style>
    <clipPath
       id="d">
      <polygon
         class="ap"
         points="72.54,21.89 61.85,11.32 72.66,0.51 51.4,0.51 51.4,21.89 "
         id="polygon1" />
    </clipPath>
    <clipPath
       id="e">
      <rect
         class="ap"
         x="36.299999"
         y="4.2800002"
         width="51.720001"
         height="24.709999"
         id="rect1" />
    </clipPath>
    <filter
       id="h"
       x="24.190001"
       y="-21.07"
       width="75.940002"
       height="75.400002"
       color-interpolation-filters="sRGB"
       filterUnits="userSpaceOnUse">
      <feFlood
         flood-color="#fff"
         result="bg"
         id="feFlood1" />
      <feBlend
         in="SourceGraphic"
         in2="bg"
         id="feBlend1"
         mode="normal" />
    </filter>
    <linearGradient
       id="i"
       x1="-355.60999"
       y1="339.25"
       x2="-354.60999"
       y2="339.25"
       gradientTransform="matrix(0,29.31,29.31,0,-9879.89,10413.44)"
       gradientUnits="userSpaceOnUse">
      <stop
         offset="0"
         stop-color="#fff"
         id="stop1" />
      <stop
         offset="1"
         stop-color="#000"
         id="stop2" />
    </linearGradient>
    <mask
       id="f"
       x="24.19"
       y="-21.07"
       width="75.94"
       height="75.4"
       maskUnits="userSpaceOnUse">
      <g
         class="ag"
         id="g2">
        <rect
           class="ab"
           x="34.330002"
           y="-9.3000002"
           width="55.669998"
           height="51.880001"
           transform="rotate(-39.3,62.154726,16.635961)"
           id="rect2" />
      </g>
    </mask>
    <clipPath
       id="j">
      <rect
         class="ap"
         x="36.299999"
         y="4.2800002"
         width="51.720001"
         height="24.709999"
         id="rect3" />
    </clipPath>
    <clipPath
       id="k">
      <polygon
         class="ap"
         points="46.28,0.12 35.71,11.43 24.91,0 24.91,21.89 46.28,21.89 "
         id="polygon3" />
    </clipPath>
    <clipPath
       id="l">
      <rect
         class="ap"
         x="26.690001"
         y="-9.1000004"
         width="34.740002"
         height="38.189999"
         id="rect4" />
    </clipPath>
    <filter
       id="o"
       x="8.5699997"
       y="-25.58"
       width="70.980003"
       height="71.160004"
       color-interpolation-filters="sRGB"
       filterUnits="userSpaceOnUse">
      <feFlood
         flood-color="#fff"
         result="bg"
         id="feFlood4" />
      <feBlend
         in="SourceGraphic"
         in2="bg"
         id="feBlend4"
         mode="normal" />
    </filter>
    <linearGradient
       id="p"
       x1="-333.95999"
       y1="325.29999"
       x2="-332.95999"
       y2="325.29999"
       gradientTransform="matrix(18.73,0,0,-18.73,6279.06,6103.2)"
       xlink:href="#i" />
    <mask
       id="m"
       x="8.57"
       y="-25.58"
       width="70.98"
       height="71.16"
       maskUnits="userSpaceOnUse">
      <g
         class="aj"
         id="g5">
        <rect
           class="y"
           x="18.799999"
           y="-15.65"
           width="50.52"
           height="51.299999"
           transform="rotate(-35.8,44.058504,9.9908861)"
           id="rect5" />
      </g>
    </mask>
    <clipPath
       id="q">
      <rect
         class="ap"
         x="26.690001"
         y="-9.1000004"
         width="34.740002"
         height="38.189999"
         id="rect6" />
    </clipPath>
    <clipPath
       id="r">
      <polygon
         class="ap"
         points="21.15,21.89 10.46,11.32 21.26,0.51 0,0.51 0,21.89 "
         id="polygon6" />
    </clipPath>
    <clipPath
       id="s">
      <rect
         class="ap"
         x="-15.11"
         y="4.3400002"
         width="51.720001"
         height="24.709999"
         id="rect7" />
    </clipPath>
    <filter
       id="v"
       x="-27.219999"
       y="-21.01"
       width="75.940002"
       height="75.400002"
       color-interpolation-filters="sRGB"
       filterUnits="userSpaceOnUse">
      <feFlood
         flood-color="#fff"
         result="bg"
         id="feFlood7" />
      <feBlend
         in="SourceGraphic"
         in2="bg"
         id="feBlend7"
         mode="normal" />
    </filter>
    <linearGradient
       id="w"
       x1="-355.60999"
       y1="339.25"
       x2="-354.60999"
       y2="339.25"
       gradientTransform="matrix(0,29.31,29.31,0,-9931.31,10413.49)"
       xlink:href="#i" />
    <mask
       id="t"
       x="-27.22"
       y="-21.01"
       width="75.94"
       height="75.4"
       maskUnits="userSpaceOnUse">
      <g
         class="ak"
         id="g8">
        <rect
           class="aq"
           x="-17.09"
           y="-9.25"
           width="55.669998"
           height="51.880001"
           transform="rotate(-39.3,10.745122,16.688402)"
           id="rect8" />
      </g>
    </mask>
    <clipPath
       id="x">
      <rect
         class="ap"
         x="-15.11"
         y="4.3400002"
         width="51.720001"
         height="24.709999"
         id="rect9" />
    </clipPath>
  </defs>
  <g
     class="ad"
     id="g26"
     transform="scale(12)">
    <g
       id="b">
      <g
         id="c">
        <g
           id="g25">
          <path
             d="M 78.42,46.1 H 73.6 v 7.83 h 4.82 v -1.55 h -2.88 v -1.72 h 2.74 v -1.47 h -2.74 v -1.57 h 2.88 z m -10.17,1.43 c 0.8,0 1.3,0.36 1.3,0.98 0,0.62 -0.48,1.09 -1.24,1.09 -0.21,0 -0.45,0 -0.65,-0.03 v -2 c 0.18,-0.02 0.38,-0.03 0.59,-0.03 m 0.29,-1.48 c -1,0 -2.18,0.02 -2.82,0.05 v 7.83 h 1.94 v -3.06 h 0.08 l 1.93,3.06 h 2.36 L 70.3,51.41 c -0.23,-0.33 -0.44,-0.65 -0.59,-0.86 1.13,-0.27 1.9,-1.02 1.9,-2.23 0,-1.52 -1.14,-2.26 -3.07,-2.26 m -11.63,0.05 h -4.75 v 7.83 h 1.94 v -3.12 h 2.65 V 49.33 H 54.1 v -1.7 h 2.8 V 46.11 Z M 31.99,40.43 28.8,36.36 31.81,32.59 h -2.38 l -2.58,3.36 v -3.36 h -1.94 v 7.83 h 1.94 v -3.56 l 2.58,3.56 h 2.56 z m -2.56,13.52 h 2.56 l -3.19,-4.07 3.01,-3.77 h -2.38 l -2.58,3.36 v -3.36 h -1.94 v 7.83 h 1.94 v -3.55 l 2.58,3.55 z M 40.42,37.41 V 32.6 h -1.91 v 4.56 c 0,1.13 -0.47,1.79 -1.66,1.79 -1.1,0 -1.67,-0.51 -1.67,-1.72 v -4.64 h -1.94 v 5.08 c 0,1.78 1.13,2.89 3.51,2.89 2.58,0 3.68,-1.41 3.68,-3.16 m -2,12.64 c 0,1.6 -0.95,2.32 -2.05,2.32 -1.33,0 -1.94,-0.99 -1.94,-2.37 0,-1.52 0.94,-2.32 1.99,-2.32 1.19,0 2,0.81 2,2.37 m 2.08,-0.11 c 0,-2.7 -1.72,-3.96 -3.95,-3.96 -2.23,0 -4.2,1.58 -4.2,4.14 0,2.38 1.35,3.96 3.92,3.96 2.28,0 4.23,-1.57 4.23,-4.14 m 4.31,-3.83 h -2.61 v 7.83 h 1.87 v -3.87 c 0,-0.62 -0.01,-1.01 -0.05,-1.39 h 0.01 c 0.2,0.44 0.47,1 0.74,1.43 l 2.35,3.83 h 2.6 V 46.1 h -1.88 v 3.3 c 0.01,0.81 0.03,1.46 0.06,1.93 H 47.9 C 47.66,50.8 47.39,50.31 47.09,49.84 L 44.81,46.1 Z m 2.46,-7.4 h -2.55 v -6.12 h -1.94 v 7.83 h 4.49 v -1.72 z m 3.94,-4.46 h 2.05 v -1.65 h -6.04 v 1.65 h 2.05 v 6.18 h 1.94 z m 10.62,3.15 v -4.81 h -1.91 v 4.56 c 0,1.13 -0.47,1.79 -1.66,1.79 -1.1,0 -1.67,-0.51 -1.67,-1.72 v -4.64 h -1.94 v 5.08 c 0,1.78 1.13,2.89 3.51,2.89 2.58,0 3.68,-1.41 3.68,-3.16 M 58.8,53.92 h 4.82 v -1.55 h -2.88 v -1.72 h 2.74 v -1.47 h -2.74 v -1.57 h 2.88 V 46.09 H 58.8 Z M 68.93,37.83 c 0,-2.41 -3.21,-1.94 -3.21,-3.06 0,-0.48 0.35,-0.8 1.18,-0.8 0.45,0 1.02,0.08 1.44,0.2 l 0.06,-1.63 c -0.44,-0.06 -1.01,-0.12 -1.43,-0.12 -2.16,0 -3.32,1.02 -3.32,2.56 0,2.56 3.15,1.9 3.15,3.09 0,0.59 -0.54,0.89 -1.19,0.89 -0.65,0 -1.2,-0.1 -1.66,-0.29 l -0.07,1.72 c 0.44,0.11 1.04,0.18 1.54,0.18 2.18,0 3.51,-1.1 3.51,-2.74 m 10.03,2.58 h 2.06 l -1.19,-7.83 h -2.49 l -1.32,4.01 c -0.15,0.47 -0.27,0.89 -0.38,1.45 H 75.63 C 75.52,37.51 75.39,37 75.25,36.56 l -1.28,-3.98 h -2.44 l -1.22,7.83 h 1.94 l 0.47,-3.66 c 0.09,-0.63 0.15,-1.21 0.18,-1.79 h 0.01 c 0.12,0.57 0.3,1.27 0.48,1.82 l 1.13,3.63 h 2.02 l 1.26,-3.93 c 0.15,-0.51 0.29,-1.06 0.39,-1.55 h 0.01 c 0.04,0.45 0.12,1.06 0.21,1.72 l 0.53,3.77 z m 4.04,0 h 1.94 V 32.58 H 83 Z m 3.26,8.98 c 0,0.81 0.02,1.46 0.05,1.93 H 86.3 C 86.06,50.79 85.79,50.3 85.49,49.83 l -2.28,-3.74 h -2.6 v 7.83 h 1.87 v -3.87 c 0,-0.62 -0.01,-1.01 -0.04,-1.39 h 0.01 c 0.2,0.44 0.47,1 0.74,1.43 l 2.35,3.83 h 2.6 v -7.83 h -1.88 z m 6.07,-8.98 h 2.61 v -7.83 h -1.88 v 3.3 c 0.01,0.81 0.03,1.46 0.06,1.93 H 93.11 C 92.87,37.28 92.6,36.78 92.3,36.32 l -2.28,-3.74 h -2.6 v 7.83 h 1.87 v -3.87 c 0,-0.62 -0.01,-1.01 -0.04,-1.39 h 0.01 c 0.2,0.44 0.47,0.99 0.74,1.43 l 2.35,3.83 z m -2.19,13.52 h 5.9 v -1.81 h -1.91 c -0.75,0 -1.37,0 -1.54,0.03 0.11,-0.12 0.21,-0.29 0.33,-0.45 l 3.04,-4.02 V 46.1 h -5.74 v 1.75 h 1.94 c 0.62,0 1.08,0 1.37,-0.01 -0.17,0.2 -0.3,0.39 -0.5,0.65 l -2.91,3.95 v 1.5 z m 7.24,-13.52 h 1.94 v -7.83 h -1.94 z m 9.07,-2.58 c 0,-2.41 -3.21,-1.94 -3.21,-3.06 0,-0.48 0.35,-0.8 1.18,-0.8 0.45,0 1.02,0.08 1.44,0.2 l 0.06,-1.63 c -0.44,-0.06 -1.01,-0.12 -1.43,-0.12 -2.16,0 -3.32,1.02 -3.32,2.56 0,2.56 3.15,1.9 3.15,3.09 0,0.59 -0.54,0.89 -1.19,0.89 -0.65,0 -1.2,-0.1 -1.65,-0.29 l -0.08,1.72 c 0.44,0.11 1.04,0.18 1.54,0.18 2.19,0 3.51,-1.1 3.51,-2.74 m 4.64,-3.6 h 2.05 v -1.65 h -6.04 v 1.65 h 2.05 v 6.18 h 1.94 z m 3.51,6.18 h 4.82 v -1.55 h -2.88 v -1.72 h 2.74 v -1.47 h -2.74 V 34.1 h 2.88 v -1.52 h -4.82 z m 10.79,-5.42 c 0,0.65 -0.48,1.08 -1.24,1.08 -0.21,0 -0.45,0 -0.65,-0.03 v -2.01 c 0.18,-0.01 0.38,-0.03 0.59,-0.03 0.8,0 1.3,0.36 1.3,0.98 m 2.06,-0.2 c 0,-1.52 -1.14,-2.26 -3.07,-2.26 -0.99,0 -2.18,0.01 -2.82,0.05 v 7.83 h 1.94 v -3.06 h 0.08 l 1.93,3.06 h 2.36 l -1.73,-2.53 c -0.23,-0.33 -0.44,-0.65 -0.59,-0.86 1.13,-0.27 1.9,-1.03 1.9,-2.23"
             id="path9" />
          <polygon
             class="au"
             points="61.85,11.32 72.66,0.51 51.4,0.51 51.4,21.89 72.54,21.89 "
             id="polygon9" />
          <g
             class="ae"
             clip-path="url(#d)"
             id="g14">
            <g
               class="as"
               id="g13">
              <g
                 class="ah"
                 clip-path="url(#e)"
                 id="g12">
                <g
                   class="al"
                   mask="url(#f)"
                   id="g11">
                  <g
                     class="aa"
                     clip-path="url(#j)"
                     id="g10">
                    <polygon
                       class="at"
                       points="45.3,27.99 79.02,25.71 61.86,11.28 "
                       id="polygon10" />
                  </g>
                </g>
              </g>
            </g>
          </g>
          <polygon
             class="au"
             points="24.9,21.89 46.28,21.89 46.28,0.12 35.71,11.43 24.9,0 "
             id="polygon14" />
          <g
             class="an"
             clip-path="url(#k)"
             id="g19">
            <g
               class="as"
               id="g18">
              <g
                 class="ai"
                 clip-path="url(#l)"
                 id="g17">
                <g
                   class="z"
                   mask="url(#m)"
                   id="g16">
                  <g
                     class="am"
                     clip-path="url(#q)"
                     id="g15">
                    <polygon
                       class="at"
                       points="35.69,11.43 48.23,-2.1 52.43,28.09 "
                       id="polygon15" />
                  </g>
                </g>
              </g>
            </g>
          </g>
          <polygon
             class="au"
             points="10.46,11.32 21.26,0.51 0,0.51 0,21.89 21.15,21.89 "
             id="polygon19" />
          <g
             class="ac"
             clip-path="url(#r)"
             id="g24">
            <g
               class="as"
               id="g23">
              <g
                 class="ar"
                 clip-path="url(#s)"
                 id="g22">
                <g
                   class="ao"
                   mask="url(#t)"
                   id="g21">
                  <g
                     class="af"
                     clip-path="url(#x)"
                     id="g20">
                    <polygon
                       class="at"
                       points="-6.11,28.04 27.6,25.76 10.44,11.34 "
                       id="polygon20" />
                  </g>
                </g>
              </g>
            </g>
          </g>
        </g>
      </g>
    </g>
  </g>
</svg>
